<svg xmlns="http://www.w3.org/2000/svg" width="1280" height="720" viewBox="0 0 1280 720"><defs><linearGradient id="s" y2="1"><stop stop-color="#142b5b"/><stop offset=".55" stop-color="#7b326e"/><stop offset="1" stop-color="#f07872"/></linearGradient><linearGradient id="r" y2="1"><stop stop-color="#2b3143"/><stop offset="1" stop-color="#090d18"/></linearGradient><filter id="g"><feGaussianBlur stdDeviation="6"/></filter></defs><rect width="1280" height="720" fill="url(#s)"/><circle cx="1050" cy="135" r="72" fill="#ffd681" opacity=".85"/><path d="M0 325V210h105v115h40V95h125v230h42V165h145v160h45V55h120v270h50V135h145v190h42V85h145v240h45V175h130v150h96V720H0Z" fill="#202844"/><path d="M0 430L1280 390V720H0Z" fill="url(#r)"/><path d="M0 525L1280 480" stroke="#ffd166" stroke-width="8" stroke-dasharray="55 40"/><g transform="translate(330 390)"><circle r="42" fill="#c98768"/><rect x="-42" y="38" width="84" height="150" rx="18" fill="#e42f91"/><path d="M15 95L305-8" stroke="#282f3d" stroke-width="20"/><path d="M304-8L392-42" stroke="#ffd166" stroke-width="8"/></g><g fill="#8f284e"><rect x="860" y="390" width="65" height="158"/><circle cx="892" cy="366" r="30"/><rect x="1040" y="410" width="65" height="145"/><circle cx="1072" cy="386" r="30"/></g><rect x="4" y="4" width="1272" height="712" fill="none" stroke="#38e8ff" stroke-width="8" opacity=".45"/><g font-family="Arial"><text x="64" y="75" fill="#38e8ff" font-size="21" font-weight="700" letter-spacing="7">NEON BAY · v1.1</text><text x="64" y="640" fill="white" font-size="58" font-weight="900">SHOTGUN COMBAT</text><text x="68" y="678" fill="#dfe6ff" font-size="22">Weapon switching, recoil, spread and tactical enemies</text></g></svg>