<svg xmlns="http://www.w3.org/2000/svg" width="1280" height="720" viewBox="0 0 1280 720"><defs><linearGradient id="s" y2="1"><stop stop-color="#142b5b"/><stop offset=".55" stop-color="#7b326e"/><stop offset="1" stop-color="#f07872"/></linearGradient><linearGradient id="r" y2="1"><stop stop-color="#2b3143"/><stop offset="1" stop-color="#090d18"/></linearGradient><filter id="g"><feGaussianBlur stdDeviation="6"/></filter></defs><rect width="1280" height="720" fill="url(#s)"/><circle cx="1050" cy="135" r="72" fill="#ffd681" opacity=".85"/><path d="M0 325V210h105v115h40V95h125v230h42V165h145v160h45V55h120v270h50V135h145v190h42V85h145v240h45V175h130v150h96V720H0Z" fill="#202844"/><path d="M0 430L1280 390V720H0Z" fill="url(#r)"/><path d="M0 525L1280 480" stroke="#ffd166" stroke-width="8" stroke-dasharray="55 40"/><rect x="190" y="205" width="18" height="122" fill="#ff3eb5"/><text x="150" y="190" fill="#ff9bd8" font-size="34" font-family="Arial" font-weight="900">HOTEL</text><rect x="760" y="272" width="180" height="54" fill="#38e8ff"/><text x="785" y="308" fill="#07101c" font-size="28" font-family="Arial" font-weight="900">ARCADE</text><g transform="translate(480 505) scale(1.25)"><path d="M0 5L28-42H155L207 0L222 46H-7Z" fill="#ff3eb5" stroke="#090c15" stroke-width="6"/><path d="M52-35H142L175 0H30Z" fill="#15253e"/><circle cx="42" cy="49" r="25"/><circle cx="176" cy="49" r="25"/></g><rect x="4" y="4" width="1272" height="712" fill="none" stroke="#38e8ff" stroke-width="8" opacity=".45"/><g font-family="Arial"><text x="64" y="75" fill="#38e8ff" font-size="21" font-weight="700" letter-spacing="7">NEON BAY · v1.1</text><text x="64" y="640" fill="white" font-size="58" font-weight="900">OCEAN DRIVE</text><text x="68" y="678" fill="#dfe6ff" font-size="22">A redesigned neon hotel, diner and arcade block</text></g></svg>